<?xml version="1.0" encoding="iso-8859-1"?>
<!-- Generator: Adobe Illustrator 19.0.0, SVG Export Plug-In . SVG Version: 6.00 Build 0)  -->
<svg version="1.1" id="Layer_1" xmlns="http://www.w3.org/2000/svg" xmlns:xlink="http://www.w3.org/1999/xlink" x="0px" y="0px"
	 viewBox="0 0 512.001 512.001" style="enable-background:new 0 0 512.001 512.001;" xml:space="preserve">
<path style="fill:#F5F5F5;" d="M29.589,366.395l-0.036-220.713c-0.003-12.607,6.722-24.257,17.639-30.563L238.315,4.731
	c10.917-6.306,24.368-6.307,35.287-0.006L464.763,115.05c10.92,6.302,17.646,17.95,17.649,30.557l0.036,220.713
	c0.003,12.607-6.722,24.257-17.639,30.563L273.684,507.271c-10.917,6.306-24.368,6.307-35.287,0.006L47.238,396.952
	C36.318,390.65,29.591,379.002,29.589,366.395z"/>
<g>
	<path style="fill:#41479B;" d="M216.012,192.071V17.613L47.19,115.119c-10.917,6.306-17.64,17.955-17.639,30.563l0.01,56.387
		h176.453C211.535,202.068,216.012,197.593,216.012,192.071z"/>
	<path style="fill:#41479B;" d="M295.99,319.931v174.457l168.821-97.506c10.917-6.306,17.64-17.955,17.639-30.563l-0.01-56.387
		H305.987C300.466,309.933,295.99,314.41,295.99,319.931z"/>
</g>
<g>
	<path style="fill:#FF4B55;" d="M305.987,202.068h176.434l-0.009-56.462c-0.003-12.607-6.729-24.255-17.649-30.557L295.99,17.646
		v174.426C295.99,197.593,300.466,202.068,305.987,202.068z"/>
	<path style="fill:#FF4B55;" d="M206.014,309.933H29.58l0.009,56.462c0.003,12.607,6.729,24.255,17.649,30.557l168.774,97.405
		V319.931C216.012,314.41,211.535,309.933,206.014,309.933z"/>
</g>
<g>
	<path style="fill:#64B496;" d="M249.547,288.284c0,0,6.717,2.459,5.841,10.891l2.716-0.05c0,0-1.713-9.745-3.129-10.912
		C253.559,287.045,249.547,288.284,249.547,288.284z"/>
	<path style="fill:#64B496;" d="M256.281,286.982c-2.848,0-7.829-0.004-13.065-1.417c1.167-1.216,2.781-3.663,2.781-7.93
		c0-6.683-4.605-2.419-4.605-2.419s-3.029,2.547-1.197,9.361c-1.787-0.681-3.557-1.561-5.246-2.686
		c1.052-1.32,3.147-4.395,4.365-9.269c0,0-7.674-1.517-9.774,4.261c-1.286-1.632-2.387-3.467-3.305-5.499
		c1.972,0.025,4.724-1.277,4.724-8.789c0,0-5.011,0.008-6.351,4.355c-0.526-1.817-0.928-3.764-1.223-5.822
		c2.001,0.581,7.173,0.997,7.173-10.228c0,0-6.211,0.01-7.649,5.512c-0.079-1.407-0.109-2.862-0.095-4.363
		c3.015-1.576,7.179-5.05,6.744-12.175c0,0-2.864,0.65-5.49,2.852c0.517-2.701,0.304-6.656-3.839-9.955
		c0,0-3.808,6.737,1.753,12.207c-0.484,0.681-0.905,1.455-1.253,2.314c-1.25-1.903-3.253-3.672-6.479-4.747
		c0,0-1.486,9.024,6.939,12.799c0.199,5.27,1.025,9.925,2.441,13.974c-2.412-2.127-4.366-5.052-4.366-5.052
		c0-10.025-8.218-10.278-8.218-10.278c-1.535,11.443,6.926,11.905,6.926,11.905l4.634,5.056
		c-10.025-1.671-10.025,6.683-10.025,6.683c6.683,1.671,10.025-1.671,10.025-1.671l3.614,1.858
		c-6.411,0.187-8.628,6.497-8.628,6.497c8.058,1.343,13.949-0.55,15.953-1.346c8.115,5.673,18.116,5.681,22.735,5.681v-1.67
		L256.281,286.982L256.281,286.982z"/>
	<path style="fill:#64B496;" d="M255.711,286.982c2.848,0,7.829-0.004,13.065-1.417c-1.167-1.216-2.78-3.663-2.78-7.93
		c0-6.683,4.605-2.419,4.605-2.419s3.028,2.547,1.197,9.361c1.787-0.681,3.557-1.561,5.246-2.686
		c-1.052-1.32-3.147-4.395-4.365-9.269c0,0,7.674-1.517,9.774,4.261c1.286-1.632,2.387-3.467,3.305-5.499
		c-1.972,0.025-4.724-1.277-4.724-8.789c0,0,5.011,0.008,6.351,4.355c0.526-1.817,0.928-3.764,1.223-5.822
		c-2.001,0.581-7.174,0.997-7.174-10.228c0,0,6.211,0.01,7.649,5.512c0.079-1.407,0.11-2.862,0.095-4.363
		c-3.015-1.576-7.178-5.05-6.744-12.175c0,0,2.864,0.65,5.49,2.852c-0.517-2.701-0.304-6.656,3.839-9.955
		c0,0,3.808,6.737-1.753,12.207c0.484,0.681,0.905,1.455,1.253,2.314c1.25-1.903,3.253-3.672,6.479-4.747
		c0,0,1.486,9.024-6.939,12.799c-0.2,5.27-1.025,9.925-2.441,13.974c2.413-2.127,4.366-5.052,4.366-5.052
		c0-10.025,8.218-10.278,8.218-10.278c1.535,11.443-6.927,11.905-6.927,11.905l-4.634,5.056c10.025-1.671,10.025,6.683,10.025,6.683
		c-6.683,1.671-10.025-1.671-10.025-1.671l-3.615,1.858c6.411,0.187,8.628,6.497,8.628,6.497c-8.058,1.343-13.949-0.55-15.953-1.346
		c-8.115,5.673-18.116,5.681-22.735,5.681v-1.67L255.711,286.982L255.711,286.982z"/>
</g>
<path style="fill:#41479B;" d="M227.808,214.143c-5.876,3.765-11.056,8.561-15.23,14.221c1.793,1.322,3.587,2.644,5.38,3.966
	c3.683-4.995,8.253-9.227,13.436-12.553L227.808,214.143z"/>
<path style="fill:#FF6B71;" d="M256.021,257.585h23.391v13.366c0,3.691-2.992,6.683-6.683,6.683h-10.025
	c-2.746,0-5.161,1.342-6.683,3.388L256.021,257.585L256.021,257.585z"/>
<polygon style="fill:#5F64B9;" points="261.033,242.547 261.033,224.168 286.095,224.168 279.412,230.851 279.412,249.23 
	261.033,249.23 "/>
<rect x="271.06" y="249.23" style="fill:#F5F5F5;" width="8.354" height="8.354"/>
<path style="fill:#FF6B71;" d="M256.021,257.585H232.63v13.366c0,3.691,2.992,6.683,6.683,6.683h10.025
	c2.745,0,5.161,1.342,6.683,3.388V257.585L256.021,257.585z"/>
<path style="fill:#F5F5F5;" d="M251.843,278.038c1.666,0.534,3.105,1.57,4.139,2.938h0.076c1.033-1.368,2.473-2.406,4.139-2.938
	v-13.77h-8.354L251.843,278.038L251.843,278.038z"/>
<polygon style="fill:#5F64B9;" points="251.008,242.547 251.008,224.168 225.945,224.168 232.63,230.851 232.63,249.23 
	251.008,249.23 "/>
<rect x="232.62" y="249.23" style="fill:#F5F5F5;" width="8.354" height="8.354"/>
<polygon style="fill:#41479B;" points="240.983,232.522 240.983,237.534 245.996,240.876 245.996,237.534 "/>
<polygon style="fill:#F5F5F5;" points="245.996,237.534 245.996,242.547 252.679,245.888 252.679,244.218 "/>
<polygon style="fill:#41479B;" points="271.058,232.522 271.058,237.534 266.045,240.876 266.045,237.534 "/>
<polygon style="fill:#F5F5F5;" points="266.045,237.534 266.045,242.547 259.362,245.888 259.362,244.218 "/>
<path style="fill:#FF4B55;" d="M266.103,269.281h-20.158c-4.583,0-8.296-3.74-8.296-8.354v-25.842l18.499,12.475l18.253-12.475
	v25.842C274.399,265.54,270.685,269.281,266.103,269.281z"/>
<g>
	<polygon style="fill:#41479B;" points="244.325,239.205 237.642,234.193 237.642,252.572 244.325,255.914 	"/>
	<polygon style="fill:#41479B;" points="267.716,239.205 274.399,234.193 274.399,252.572 267.716,255.914 	"/>
	<rect x="246" y="255.92" style="fill:#41479B;" width="20.05" height="8.354"/>
</g>
<polygon style="fill:#FF4B55;" points="245.996,240.876 256.021,245.888 266.045,240.876 266.045,255.914 245.996,255.914 "/>
<g>
	<path style="fill:#F5F5F5;" d="M263.54,242.456v16.799c0,1.382-1.125,2.507-2.506,2.507h-10.025c-1.382,0-2.507-1.125-2.507-2.507
		v-16.732l-5.012-3.357v20.088c0,4.146,3.373,7.519,7.519,7.519h10.025c4.146,0,7.519-3.373,7.519-7.519v-20.202L263.54,242.456z"/>
	<path style="fill:#F5F5F5;" d="M265.289,254.127c-2.814,0.252-5.982,0.537-9.269,1.681c-3.287-1.143-6.454-1.428-9.269-1.681
		c-4.71-0.424-7.504-0.835-9.104-3.675v4.822c2.456,1.597,5.567,1.891,8.804,2.182c2.905,0.261,5.908,0.53,8.976,1.692l0.591,0.224
		l0.591-0.224c3.068-1.162,6.071-1.431,8.976-1.692c3.239-0.291,6.355-0.58,8.811-2.179v-4.837
		C272.801,253.291,270.006,253.702,265.289,254.127z"/>
</g>
<polygon style="fill:#FFE15A;" points="259.362,238.37 256.855,238.37 256.855,235.864 255.185,235.864 255.185,238.37 
	252.679,238.37 252.679,240.041 255.185,240.041 255.185,247.559 256.855,247.559 256.855,240.041 259.362,240.041 "/>
<rect x="246.69" y="228.202" transform="matrix(0.7071 -0.7071 0.7071 0.7071 -96.2607 244.7746)" style="fill:#464655;" width="1.297" height="20.764"/>
<polygon style="fill:#FFE15A;" points="237.252,228.489 239.088,232.16 240.923,230.325 "/>
<rect x="248.767" y="226.812" transform="matrix(0.8083 -0.5888 0.5888 0.8083 -91.8415 192.327)" style="fill:#464655;" width="1.298" height="20.765"/>
<polygon style="fill:#FFE15A;" points="241.008,225.641 242.252,229.552 244.35,228.023 "/>
<rect x="245.042" y="229.963" transform="matrix(0.5726 -0.8199 0.8199 0.5726 -92.0334 304.1622)" style="fill:#464655;" width="1.297" height="20.766"/>
<polygon style="fill:#FFE15A;" points="233.983,232.167 236.431,235.46 237.918,233.333 "/>
<rect x="264.034" y="228.207" transform="matrix(-0.7071 -0.7071 0.7071 -0.7071 283.134 594.4565)" style="fill:#464655;" width="1.297" height="20.764"/>
<polygon style="fill:#FFE15A;" points="274.78,228.489 272.945,232.16 271.11,230.325 "/>
<rect x="261.969" y="226.794" transform="matrix(-0.8083 -0.5888 0.5888 -0.8083 335.2414 583.5093)" style="fill:#464655;" width="1.298" height="20.765"/>
<polygon style="fill:#FFE15A;" points="271.024,225.641 269.781,229.552 267.682,228.023 "/>
<rect x="265.701" y="229.949" transform="matrix(-0.5726 -0.8199 0.8199 -0.5726 221.815 596.3062)" style="fill:#464655;" width="1.297" height="20.766"/>
<polygon style="fill:#FFE15A;" points="278.051,232.167 275.602,235.46 274.116,233.333 "/>
<path style="fill:#F5F5F5;" d="M255.172,277.16c0,0-6.462-6.939-5.209-13.31c1.008-5.124,4.066-10.771,6.46-12.145
	c0,0,3.384-0.209,2.536,2.732c-0.849,2.94-1.882,3.698-1.58,6.594C257.9,266.043,258.71,271.986,255.172,277.16z"/>
<path style="fill:#41479B;" d="M257.133,251.741c-0.404-0.053-0.711-0.036-0.711-0.036c-2.393,1.375-5.451,7.023-6.459,12.145
	c-0.57,2.898,0.46,5.907,1.748,8.334C250.896,261.68,253.962,257.953,257.133,251.741z"/>
<path style="fill:#FF4B55;" d="M257.378,261.03c-0.302-2.897,0.731-3.655,1.58-6.594c0.595-2.058-0.884-2.572-1.825-2.696
	c0,0-2.157,4.956-2.297,8.28c-0.122,2.925,0.626,14.828,0.335,17.139C258.71,271.986,257.9,266.043,257.378,261.03z"/>
<path style="fill:#F5F0F0;" d="M252.994,254.22c1.346-1.312,3.239-1.899,5.092-1.582c-0.879-2.829-1.758-5.658-2.637-8.486
	c-1.853-0.317-3.745,0.27-5.092,1.582C251.237,248.561,252.115,251.391,252.994,254.22z"/>
<path style="fill:#F5F5F5;" d="M258.086,252.638c1.346-1.312,3.239-1.899,5.092-1.582c-0.879-2.829-1.758-5.658-2.637-8.486
	c-1.853-0.319-3.745,0.27-5.092,1.582C256.329,246.979,257.208,249.809,258.086,252.638z"/>
<path style="fill:#5F64B9;" d="M248.388,215.925c-9.07-0.21-18.029,2.021-25.942,6.458c-1.09-1.943-2.179-3.886-3.269-5.83
	c8.956-5.022,19.099-7.547,29.364-7.309C248.49,211.472,248.439,213.698,248.388,215.925z"/>
<path style="fill:#41479B;" d="M284.233,214.143c5.876,3.765,11.056,8.561,15.23,14.221c-1.793,1.322-3.587,2.644-5.379,3.966
	c-3.683-4.995-8.253-9.227-13.436-12.553L284.233,214.143z"/>
<path style="fill:#5F64B9;" d="M263.654,215.925c9.07-0.21,18.029,2.021,25.942,6.458c1.09-1.943,2.179-3.886,3.269-5.83
	c-8.958-5.022-19.099-7.547-29.364-7.309C263.551,211.472,263.602,213.698,263.654,215.925z"/>
<path style="fill:#41479B;" d="M269.387,214.143c-8.75-2.394-17.983-2.394-26.733,0c-0.587-2.149-1.176-4.298-1.763-6.447
	c9.905-2.709,20.356-2.709,30.26,0C270.563,209.846,269.976,211.994,269.387,214.143z"/>
<g>
	<path style="fill:#FF6B71;" d="M233.628,289.029c-7.212,1.883-14.261,4.424-21.049,7.622c0.95,2.016,1.899,4.03,2.849,6.046
		c6.551-3.087,13.359-5.523,20.326-7.313L233.628,289.029z"/>
	<path style="fill:#FF6B71;" d="M278.413,289.029c7.212,1.883,14.261,4.424,21.049,7.622c-0.95,2.016-1.899,4.03-2.849,6.046
		c-6.551-3.087-13.359-5.523-20.326-7.313L278.413,289.029z"/>
</g>
<g>
	<path style="fill:#FF4B55;" d="M282.898,294.199c-17.573-4.219-35.894-4.219-53.467,0c-0.52-2.167-1.04-4.333-1.56-6.498
		c18.597-4.465,37.988-4.465,56.587,0C283.938,289.866,283.418,292.032,282.898,294.199z"/>
	<path style="fill:#FF4B55;" d="M256.021,296.013l-4.607,1.152c-1.055,0.264-2.076-0.534-2.076-1.621v-2.403
		c0-1.087,1.021-1.884,2.076-1.621l4.607,1.152V296.013z"/>
	<path style="fill:#FF4B55;" d="M256.021,292.672l4.607-1.152c1.055-0.264,2.076,0.534,2.076,1.621v2.403
		c0,1.087-1.021,1.884-2.076,1.621l-4.607-1.152V292.672z"/>
</g>
<path style="fill:#FF6B71;" d="M256.524,296.013h-1.007c-0.645,0-1.167-0.522-1.167-1.167v-1.007c0-0.645,0.522-1.167,1.167-1.167
	h1.007c0.645,0,1.167,0.522,1.167,1.167v1.007C257.691,295.491,257.169,296.013,256.524,296.013z"/>
<g>
</g>
<g>
</g>
<g>
</g>
<g>
</g>
<g>
</g>
<g>
</g>
<g>
</g>
<g>
</g>
<g>
</g>
<g>
</g>
<g>
</g>
<g>
</g>
<g>
</g>
<g>
</g>
<g>
</g>
</svg>
