<?xml version="1.0" encoding="utf-8"?>
<!-- Generator: Adobe Illustrator 25.2.1, SVG Export Plug-In . SVG Version: 6.00 Build 0)  -->
<svg version="1.1" id="Capa_1" xmlns="http://www.w3.org/2000/svg" xmlns:xlink="http://www.w3.org/1999/xlink" x="0px" y="0px"
	 viewBox="0 0 200 200" style="enable-background:new 0 0 200 200;" xml:space="preserve">
<style type="text/css">
	.st0{fill:#1D1F3F;}
	.st1{clip-path:url(#SVGID_2_);}
	.st2{fill:#424898;}
	.st3{fill:#EA4D58;}
	.st4{fill:#F2F2F2;}
</style>
<g>
	<g>
		<polygon class="st0" points="165.6,97.24 165.6,142.53 100,181 34.4,142.53 34.4,97.24 28.87,97.24 28.87,145.67 100,187.4 
			171.13,145.67 171.13,97.24 		"/>
		<polygon class="st0" points="34.4,63.41 34.4,18.13 165.6,18.13 165.6,63.41 171.13,63.41 171.13,12.6 28.87,12.6 28.87,63.41 		
			"/>
	</g>
	<g>
		<g>
			<g>
				<defs>
					<polygon id="SVGID_1_" points="40.41,124.4 159.36,124.4 159.36,139.5 100,171.66 40.41,139.69 					"/>
				</defs>
				<clipPath id="SVGID_2_">
					<use xlink:href="#SVGID_1_"  style="overflow:visible;"/>
				</clipPath>
				<g class="st1">
					<rect x="40.41" y="123.53" class="st2" width="13.51" height="12.26"/>
					<rect x="66.82" y="123.53" class="st2" width="13.51" height="12.26"/>
					<rect x="93.27" y="123.53" class="st2" width="13.51" height="12.26"/>
					<rect x="119.75" y="123.53" class="st2" width="13.51" height="12.26"/>
					<rect x="145.82" y="123.53" class="st2" width="13.51" height="12.26"/>
					<rect x="54.18" y="135.79" class="st3" width="13.51" height="12.26"/>
					<rect x="80.63" y="135.79" class="st3" width="13.51" height="12.26"/>
					<rect x="107.11" y="135.79" class="st3" width="13.51" height="12.26"/>
					<rect x="133.18" y="135.79" class="st3" width="13.51" height="12.26"/>
					<rect x="66.82" y="148.05" class="st2" width="13.51" height="12.26"/>
					<rect x="93.27" y="148.05" class="st2" width="13.51" height="12.26"/>
					<rect x="119.75" y="148.05" class="st2" width="13.51" height="12.26"/>
					<rect x="80.63" y="160.31" class="st3" width="13.51" height="12.26"/>
					<rect x="107.11" y="160.31" class="st3" width="13.51" height="12.26"/>
				</g>
			</g>
		</g>
	</g>
	<g>
		<polygon class="st3" points="47.45,34.89 49.26,38.6 53.39,39.24 50.44,42.15 51.16,46.28 47.45,44.31 43.82,46.28 44.46,42.15 
			41.51,39.24 45.63,38.6 		"/>
		<polygon class="st3" points="152.55,34.89 154.37,38.6 158.49,39.24 155.54,42.15 156.18,46.28 152.55,44.31 148.84,46.28 
			149.56,42.15 146.61,39.24 150.74,38.6 		"/>
		<g>
			<polygon class="st0" points="71.32,32.35 74.01,37.73 79.91,38.6 75.6,42.87 76.62,48.81 71.32,46.01 65.95,48.81 66.97,42.87 
				62.62,38.6 68.64,37.73 			"/>
		</g>
		<g>
			<polygon class="st0" points="128.38,32.35 131.06,37.73 137.08,38.6 132.73,42.87 133.75,48.81 128.38,46.01 123.08,48.81 
				124.02,42.87 119.75,38.6 125.69,37.73 			"/>
		</g>
		<g>
			<path class="st0" d="M92.17,38.52c-0.15-0.95,0.08-1.74,0.95-2.31c0.23-0.15,0.57-0.49,0.38-0.95c-0.38,0.64-1.1,0.87-1.59,1.44
				c-0.23-0.57-0.38-1.02-0.49-1.59c-0.08-0.72,0.38-1.1,0.87-1.44c0.38-0.3,0.87-0.57,1.1-1.25c-0.64,0.64-1.36,0.79-1.97,1.36
				c-0.08-0.3-0.08-0.64-0.08-0.87c-0.08-1.36,0.15-1.74,1.51-2.12c0.49-0.15,0.95-0.23,1.36-0.79c-0.87,0.23-1.66,0.38-2.53,0.57
				c0.15-0.57,0.23-1.02,0.3-1.44c0.15-0.64,0.49-0.87,1.1-0.95c0.61-0.08,1.36,0,2.04-0.49c-0.87,0-1.51,0-2.31,0
				c0.79-1.74,1.97-2.46,3.86-2.04c0-0.08,0-0.15,0-0.15c-0.38-0.08-0.72-0.23-1.1-0.3c1.36-1.66,7.83-1.89,10.44,1.36
				c-0.15,0-0.38,0.08-0.57,0.08c-0.49,0.15-0.87,0.38-1.17,0.72c-0.3,0.49,0.23,0.79,0.38,1.1c0.38,0.95,0.79,1.82,0.87,2.91
				c0.08,1.25,0.79,2.53,1.66,3.48c0.57,0.64,0.64,1.17,0.3,1.89c-0.08,0.08-0.08,0.23-0.15,0.3c-0.57,1.36-0.57,1.36-1.97,1.1
				c-0.15,0-0.3-0.08-0.49,0c-0.49,0.23-0.79,0-1.02-0.57c-0.3-0.72-0.87-1.02-1.59-1.1c-0.87,0-1.51-0.57-2.19-1.25
				c0.57,1.97,1.97,3.18,3.33,4.35c0.49,0.49,0.95,1.02,1.51,1.51c0.08,0.15,0.15,0.23,0.23,0.23c0.23,0.38,0.57,0.87,0.79,1.25
				c0.15,0.49,0.38,0.95,0.38,1.44c0.08,0.64,0.15,1.17-0.64,1.66c-0.79,0.38-0.87,0.95-0.64,1.82c0.15,0.64-0.23,1.17-0.95,1.17
				c-1.17,0-2.38,0-3.56,0c-1.59,0-3.06,0-4.65,0c-0.87,0-1.25-0.49-0.95-1.36c0.15-0.57-0.15-0.87-0.49-1.1
				c-0.79-0.49-0.87-0.95-0.38-1.74c0.38-0.64,0.49-1.44,0.57-2.19c0-0.3,0.08-0.57-0.15-0.87c-0.23,0.87-0.38,1.82-0.79,2.69
				c-0.23-0.57-0.38-1.1-0.57-1.59c-0.08-0.38-0.23-0.72-0.3-1.1c0.08-0.08,0-0.15-0.08-0.23c-0.15-0.79,0.23-1.36,0.72-1.82
				c0.15-0.23,0.49-0.38,0.38-0.87c-0.49,0.57-0.87,1.02-1.36,1.51C92.51,39.39,92.32,38.9,92.17,38.52z M99.92,37.57
				c0.79,0.87,1.51,1.74,2.31,2.61c0.95,1.1,1.74,2.31,1.59,3.86c0,0.15,0,0.23,0.08,0.38c0,0.23,0.08,0.38,0.23,0.3
				c0.08,0,0.23-0.15,0.3-0.23c0.08-0.15,0.08-0.38,0.08-0.64c0-1.17-0.38-2.12-1.1-2.99c-0.57-0.68-1.1-1.4-1.82-2.04
				C101.02,38.44,100.64,37.8,99.92,37.57z M98.34,30.84c-1.82,1.59-2.19,3.78-1.25,5.75c0.08-0.38,0-0.72-0.08-1.02
				c-0.15-1.17,0-2.38,0.79-3.25C98.34,31.97,98.41,31.48,98.34,30.84z M103.33,30.84c0.79,1.06,0.95,1.06,1.66,0.57
				C104.35,31.48,103.93,30.76,103.33,30.84z M100.79,26.83c-0.38-0.64-1.02-1.1-1.82-1.17C99.7,25.96,100.08,26.6,100.79,26.83z"/>
			<g>
				<path class="st0" d="M100,53.69c-1.82,0-3.56,0-5.37,0c-0.64,0-0.72-0.15-0.49-0.72c0.15-0.38,0.49-0.64,0.79-0.87
					c0.57-0.57,0.95-1.17,1.02-2.04c0-0.64,0.38-0.87,0.95-0.87c2.12,0,4.2,0,6.32,0c0.57,0,0.95,0.23,0.95,0.79
					c0,1.02,0.57,1.74,1.25,2.38c0.15,0.15,0.3,0.38,0.57,0.57c0.15,0.23,0.23,0.49,0.08,0.72s-0.38,0.15-0.57,0.15
					C103.63,53.69,101.82,53.69,100,53.69z M101.97,49.68c-0.38,0-0.72,0-1.1,0c-0.08,0-0.23,0-0.23,0.15
					c0,0.15,0.08,0.23,0.23,0.23c0.79,0,1.51,0,2.31,0c0.15,0,0.3-0.08,0.23-0.23c0-0.15-0.15-0.15-0.3-0.15
					C102.69,49.68,102.31,49.68,101.97,49.68z"/>
			</g>
			<g>
				<path class="st0" d="M100.08,56.68c-2.69,0-5.37,0-8.06,0c-0.72,0-0.79-0.08-0.49-0.72c0.49-1.1,1.44-1.66,2.61-1.66
					c3.93-0.08,7.91-0.08,11.92,0c1.17,0,2.04,0.57,2.53,1.66c0.15,0.49,0.15,0.72-0.49,0.72
					C105.37,56.68,102.76,56.68,100.08,56.68z M104.65,55.2c0.49,0,1.02,0,1.51,0c0.15,0,0.3,0,0.3-0.23c0-0.15-0.15-0.15-0.3-0.23
					c-1.02,0-2.04,0-2.99,0c-0.15,0-0.38,0-0.3,0.23c0,0.15,0.23,0.23,0.38,0.23C103.71,55.2,104.2,55.2,104.65,55.2z"/>
			</g>
			<path class="st4" d="M99.92,37.57c0.72,0.23,1.1,0.87,1.66,1.25c0.72,0.57,1.25,1.36,1.82,2.04c0.72,0.87,1.17,1.89,1.1,2.99
				c0,0.23,0,0.38-0.08,0.64c-0.08,0.08-0.15,0.23-0.3,0.23s-0.23-0.15-0.23-0.23c-0.11-0.11-0.11-0.23-0.11-0.38
				c0.15-1.59-0.64-2.76-1.59-3.86C101.44,39.39,100.64,38.44,99.92,37.57z"/>
			<path class="st4" d="M98.34,30.84c0.08,0.64,0,1.1-0.49,1.51c-0.87,0.87-0.95,2.04-0.79,3.25c0,0.3,0.15,0.64,0.08,1.02
				C96.14,34.59,96.52,32.43,98.34,30.84z"/>
			<path class="st4" d="M103.33,30.84c0.72-0.15,1.02,0.57,1.66,0.57C104.28,31.97,104.12,31.9,103.33,30.84z"/>
			<path class="st4" d="M100.79,26.83c-0.72-0.23-1.17-0.87-1.82-1.17C99.77,25.81,100.38,26.19,100.79,26.83z"/>
			<path class="st4" d="M101.97,49.68c0.38,0,0.72,0,1.1,0c0.15,0,0.3,0,0.3,0.15c0,0.15-0.08,0.23-0.23,0.23c-0.79,0-1.51,0-2.31,0
				c-0.15,0-0.23-0.08-0.23-0.23c0-0.15,0.15-0.15,0.23-0.15C101.25,49.68,101.59,49.68,101.97,49.68z"/>
			<path class="st4" d="M104.65,55.2c-0.49,0-0.95,0-1.44,0c-0.15,0-0.38,0-0.38-0.23s0.15-0.23,0.3-0.23c1.02,0,2.04,0,2.99,0
				c0.15,0,0.3,0,0.3,0.23s-0.15,0.23-0.3,0.23C105.68,55.2,105.22,55.2,104.65,55.2z"/>
		</g>
	</g>
	<g>
		<path class="st0" d="M29.74,90.2V70.98h9.23v2.91h-4.73v4.2h4.65v2.91h-4.65v9.16C34.24,90.2,29.74,90.2,29.74,90.2z"/>
		<path class="st0" d="M43.02,90.2V70.98h9.23v2.91h-4.8v4.2h4.65v2.91h-4.65v6.24h4.8v2.91C52.25,90.2,43.02,90.2,43.02,90.2z"/>
		<path class="st0" d="M56.3,70.98h4.58c4.99,0,6.73,0.79,6.73,6.55v6.89c0,3.63-1.1,5.75-6.73,5.75H56.3
			C56.3,90.16,56.3,70.98,56.3,70.98z M60.73,87.44c2.19,0,2.38-0.87,2.38-2.69v-7.91c0-2.53-0.08-3.18-2.38-3.18V87.44z"/>
		<path class="st0" d="M71.97,90.2V70.98h9.23v2.91h-4.73v4.2h4.65v2.91h-4.65v6.24h4.8v2.91C81.27,90.2,71.97,90.2,71.97,90.2z"/>
		<path class="st0" d="M85.13,90.2V70.98h4.5c4.28,0,6.81,0.38,6.81,4.5c0,2.38-1.02,3.93-3.41,4.35v0.08
			c2.12,0.08,3.41,0.87,3.41,3.63v4.05c0,0.79,0.15,1.89,0.72,2.69h-4.5c-0.57-0.79-0.64-1.89-0.64-2.69v-4.2
			c0-1.36-0.79-2.04-1.59-2.04h-0.72v8.78h-4.58V90.2z M89.63,78.66c2.04,0,2.38-0.72,2.38-2.46c0-1.82-0.3-2.46-2.38-2.46V78.66z"
			/>
		<path class="st0" d="M110.1,70.98l2.46,19.22h-4.43l-0.49-4.73h-2.46l-0.72,4.73h-3.78l3.25-19.22H110.1z M107.26,82.52
			l-0.79-8.55h-0.08l-0.79,8.55H107.26z"/>
		<path class="st0" d="M128.03,82.71v2.53c0,3.56-1.89,5.3-5.68,5.3c-2.99,0-5.6-1.17-5.6-5.6v-8.7c0-4.43,2.69-5.6,5.6-5.6
			c3.25,0,5.68,0.95,5.68,5.15v2.12h-4.5v-2.69c0-0.79-0.23-1.51-1.17-1.51s-1.17,0.72-1.17,1.51v10.82c0,0.79,0.23,1.51,1.17,1.51
			s1.17-0.72,1.17-1.51v-3.25h4.5V82.71z"/>
		<path class="st0" d="M132.39,90.2V70.98h4.5V90.2H132.39z"/>
		<path class="st0" d="M152.55,84.98c0,4.43-2.69,5.6-5.68,5.6s-5.68-1.17-5.68-5.6V76.2c0-4.43,2.69-5.6,5.68-5.6
			s5.68,1.17,5.68,5.6V84.98z M144.95,69.81l2.61-3.78h3.06l-3.93,3.78H144.95z M145.67,86c0,0.79,0.23,1.51,1.17,1.51
			s1.17-0.72,1.17-1.51V75.18c0-0.79-0.23-1.51-1.17-1.51s-1.17,0.72-1.17,1.51V86z"/>
		<path class="st0" d="M156.83,70.98h6.17l2.84,14h0.08v-14h3.48V90.2h-5.75l-3.33-16.04h-0.08V90.2h-3.48V70.98H156.83z"/>
	</g>
	<g>
		<path class="st0" d="M39.77,99.77h2.12c2.31,0,3.06,0.49,3.06,3.63v3.78c0,2.04-0.49,3.25-3.06,3.25h-2.12V99.77z M41.93,108.85
			c1.02,0,1.1-0.49,1.1-1.51v-4.35c0-1.44-0.08-1.74-1.1-1.74V108.85z"/>
		<path class="st0" d="M51.31,107.49c0,2.46-1.25,3.06-2.61,3.06c-1.36,0-2.61-0.72-2.61-3.06v-4.8c0-2.46,1.25-3.06,2.61-3.06
			c1.36,0,2.61,0.72,2.61,3.06V107.49z M48.17,108.06c0,0.38,0.08,0.87,0.57,0.87s0.57-0.38,0.57-0.87v-6.02
			c0-0.38-0.08-0.87-0.57-0.87s-0.57,0.38-0.57,0.87V108.06z"/>
		<path class="st0" d="M53.99,110.37h-1.66V99.7h3.06l0.87,7.6l0,0l0.87-7.6h2.99v10.67h-1.89v-9.08l0,0l-1.17,9.08h-1.82
			l-1.17-9.08l0,0v9.08H53.99z"/>
		<path class="st0" d="M61.18,110.37V99.7h2.04v10.67H61.18z"/>
		<path class="st0" d="M64.21,99.77h2.84l1.36,7.76l0,0v-7.76h1.66v10.67h-2.69l-1.51-8.93l0,0v8.93h-1.66
			C64.21,110.44,64.21,99.77,64.21,99.77z"/>
		<path class="st0" d="M70.98,110.37V99.7h2.04v10.67H70.98z"/>
		<path class="st0" d="M79.3,106.24v1.44c0,1.97-0.87,2.91-2.61,2.91c-1.36,0-2.61-0.72-2.61-3.06v-4.8c0-2.46,1.25-3.06,2.61-3.06
			c1.51,0,2.61,0.57,2.61,2.84v1.17h-2.04v-1.51c0-0.38-0.08-0.87-0.57-0.87c-0.38,0-0.57,0.38-0.57,0.87v6.02
			c0,0.38,0.08,0.87,0.57,0.87s0.57-0.38,0.57-0.87v-1.82h2.04V106.24z"/>
		<path class="st0" d="M84.6,99.77l1.17,10.67h-2.04l-0.23-2.61h-1.1l-0.3,2.61h-1.89l1.51-10.67H84.6z M83.24,106.17l-0.38-4.73
			l0,0l-0.38,4.73H83.24z"/>
		<path class="st0" d="M86.57,99.77h2.84l1.36,7.76l0,0v-7.76h1.66v10.67h-2.69l-1.51-8.93l0,0v8.93h-1.66
			C86.57,110.44,86.57,99.77,86.57,99.77z"/>
		<path class="st0" d="M97.54,99.77l1.17,10.67h-2.04l-0.23-2.61h-1.1l-0.3,2.61H93.3l1.51-10.67H97.54z M96.29,106.17l-0.38-4.73
			l0,0l-0.38,4.73H96.29z"/>
		<path class="st0" d="M103.06,99.77h2.12c2.31,0,3.06,0.49,3.06,3.63v3.78c0,2.04-0.49,3.25-3.06,3.25h-2.12V99.77z M105.15,108.85
			c1.02,0,1.1-0.49,1.1-1.51v-4.35c0-1.44-0.08-1.74-1.1-1.74V108.85z"/>
		<path class="st0" d="M109.31,110.37V99.7h4.28v1.59h-2.19v2.38h2.12v1.59h-2.12v3.48h2.19v1.59h-4.28V110.37z"/>
		<path class="st0" d="M122.06,99.77l1.17,10.67h-2.04l-0.23-2.61h-1.1l-0.3,2.61h-1.78l1.51-10.67H122.06z M120.77,106.17
			l-0.38-4.73l0,0l-0.38,4.73H120.77z"/>
		<path class="st0" d="M129.32,99.77v7.98c0,1.51-0.38,2.91-2.61,2.91c-0.79,0-2.61-0.3-2.61-2.61v-1.74h2.04v1.51
			c0,0.49,0,1.1,0.57,1.1s0.57-0.64,0.57-1.1v-8.06C127.28,99.77,129.32,99.77,129.32,99.77z"/>
		<path class="st0" d="M130.42,110.37V99.7h4.28v1.59h-2.19v2.38h2.12v1.59h-2.12v3.48h2.19v1.59h-4.28V110.37z"/>
		<path class="st0" d="M135.56,99.77h2.12c2.31,0,3.06,0.49,3.06,3.63v3.78c0,2.04-0.49,3.25-3.06,3.25h-2.12V99.77z M137.61,108.85
			c1.02,0,1.1-0.49,1.1-1.51v-4.35c0-1.44-0.08-1.74-1.1-1.74V108.85z"/>
		<path class="st0" d="M141.81,110.37V99.7h2.04c1.97,0,3.18,0.23,3.18,2.46c0,1.36-0.49,2.19-1.59,2.46l0,0
			c1.02,0,1.59,0.49,1.59,1.97v2.19c0,0.38,0.08,1.02,0.3,1.51h-2.04c-0.23-0.38-0.3-1.02-0.3-1.51v-2.31c0-0.72-0.38-1.1-0.72-1.1
			h-0.3v4.88h-2.12v0.11H141.81z M143.85,103.93c0.95,0,1.1-0.38,1.1-1.36c0-0.95-0.15-1.36-1.1-1.36V103.93z"/>
		<path class="st0" d="M148.12,110.37V99.7h4.28v1.59h-2.19v2.38h2.12v1.59h-2.12v3.48h2.19v1.59h-4.28V110.37z"/>
		<path class="st0" d="M153.01,110.37v-1.82l2.31-7.19h-2.31v-1.59h4.5v1.59l-2.46,7.42h2.46v1.59H153.01z"/>
	</g>
</g>
</svg>
