<?xml version="1.0" encoding="utf-8"?>
<!-- Generator: Adobe Illustrator 25.2.1, SVG Export Plug-In . SVG Version: 6.00 Build 0)  -->
<svg version="1.1" id="Capa_1" xmlns="http://www.w3.org/2000/svg" xmlns:xlink="http://www.w3.org/1999/xlink" x="0px" y="0px"
	 viewBox="0 0 100 100" style="enable-background:new 0 0 100 100;" xml:space="preserve">
<style type="text/css">
	.st0{fill:#FFFFFF;}
	.st1{fill:#1D1F3F;}
	.st2{clip-path:url(#SVGID_2_);}
	.st3{fill:#424898;}
	.st4{fill:#EA4D58;}
	.st5{fill:#F2F2F2;}
</style>
<g>
	<polygon class="st0" points="89.1,75.1 50,98.1 10.9,75.1 10.9,1.9 89.1,1.9 	"/>
	<g>
		<g>
			<polygon class="st1" points="86.1,48.5 86.1,73.4 50,94.6 13.9,73.4 13.9,48.5 10.9,48.5 10.9,75.1 50,98.1 89.1,75.1 89.1,48.5 
							"/>
			<polygon class="st1" points="13.9,29.9 13.9,5 86.1,5 86.1,29.9 89.1,29.9 89.1,1.9 10.9,1.9 10.9,29.9 			"/>
		</g>
		<g>
			<g>
				<g>
					<g>
						<g>
							<defs>
								<polygon id="SVGID_1_" points="17.2,63.4 82.7,63.4 82.7,71.7 50,89.4 17.2,71.8 								"/>
							</defs>
							<clipPath id="SVGID_2_">
								<use xlink:href="#SVGID_1_"  style="overflow:visible;"/>
							</clipPath>
							<g class="st2">
								<rect x="17.2" y="62.9" class="st3" width="7.4" height="6.7"/>
								<rect x="31.7" y="62.9" class="st3" width="7.4" height="6.7"/>
								<rect x="46.3" y="62.9" class="st3" width="7.4" height="6.7"/>
								<rect x="60.9" y="62.9" class="st3" width="7.4" height="6.7"/>
								<rect x="75.2" y="62.9" class="st3" width="7.4" height="6.7"/>
								<rect x="24.8" y="69.7" class="st4" width="7.4" height="6.7"/>
								<rect x="39.3" y="69.7" class="st4" width="7.4" height="6.7"/>
								<rect x="53.9" y="69.7" class="st4" width="7.4" height="6.7"/>
								<rect x="68.3" y="69.7" class="st4" width="7.4" height="6.7"/>
								<rect x="31.7" y="76.4" class="st3" width="7.4" height="6.7"/>
								<rect x="46.3" y="76.4" class="st3" width="7.4" height="6.7"/>
								<rect x="60.9" y="76.4" class="st3" width="7.4" height="6.7"/>
								<rect x="39.3" y="83.2" class="st4" width="7.4" height="6.7"/>
								<rect x="53.9" y="83.2" class="st4" width="7.4" height="6.7"/>
							</g>
						</g>
					</g>
				</g>
			</g>
		</g>
		<g>
			<polygon class="st4" points="21.1,14.2 22.1,16.2 24.4,16.6 22.7,18.2 23.1,20.4 21.1,19.4 19.1,20.4 19.4,18.2 17.8,16.6 
				20.1,16.2 			"/>
			<polygon class="st4" points="78.9,14.2 79.9,16.2 82.2,16.6 80.6,18.2 80.9,20.4 78.9,19.4 76.9,20.4 77.3,18.2 75.6,16.6 
				77.9,16.2 			"/>
			<g>
				<polygon class="st1" points="34.2,12.8 35.7,15.7 38.9,16.2 36.6,18.6 37.1,21.8 34.2,20.3 31.3,21.8 31.8,18.6 29.4,16.2 
					32.7,15.7 				"/>
			</g>
			<g>
				<polygon class="st1" points="65.6,12.8 67.1,15.7 70.4,16.2 68,18.6 68.6,21.8 65.6,20.3 62.7,21.8 63.2,18.6 60.9,16.2 
					64.1,15.7 				"/>
			</g>
			<g>
				<path class="st1" d="M45.7,16.2c-0.1-0.5,0-1,0.5-1.3c0.1-0.1,0.3-0.3,0.2-0.5c-0.2,0.4-0.6,0.5-0.9,0.8
					c-0.1-0.3-0.2-0.6-0.3-0.9c0-0.4,0.2-0.6,0.5-0.8c0.2-0.2,0.5-0.3,0.6-0.7c-0.4,0.4-0.7,0.4-1.1,0.7c0-0.2,0-0.4,0-0.5
					c0-0.7,0.1-1,0.8-1.2c0.3-0.1,0.5-0.1,0.7-0.4c-0.5,0.1-0.9,0.2-1.4,0.3c0.1-0.3,0.1-0.6,0.2-0.8c0.1-0.4,0.3-0.5,0.6-0.5
					s0.7,0,1.1-0.3c-0.5,0-0.8,0-1.3,0c0.4-1,1.1-1.4,2.1-1.1c0,0,0-0.1,0-0.1c-0.2,0-0.4-0.1-0.6-0.2c0.7-0.9,4.3-1,5.7,0.7
					c-0.1,0-0.2,0-0.3,0c-0.3,0.1-0.5,0.2-0.6,0.4c-0.2,0.3,0.1,0.4,0.2,0.6c0.2,0.5,0.4,1,0.5,1.6c0,0.7,0.4,1.4,0.9,1.9
					c0.3,0.4,0.4,0.6,0.2,1c0,0,0,0.1-0.1,0.2c-0.3,0.7-0.3,0.7-1.1,0.6c-0.1,0-0.2,0-0.3,0c-0.3,0.1-0.4,0-0.6-0.3
					c-0.2-0.4-0.5-0.6-0.9-0.6c-0.5,0-0.8-0.3-1.2-0.7c0.3,1.1,1.1,1.7,1.8,2.4c0.3,0.3,0.5,0.6,0.8,0.8c0,0.1,0.1,0.1,0.1,0.1
					c0.1,0.2,0.3,0.5,0.4,0.7c0.1,0.3,0.2,0.5,0.2,0.8c0,0.4,0.1,0.6-0.4,0.9c-0.4,0.2-0.5,0.5-0.4,1c0.1,0.4-0.1,0.6-0.5,0.6
					c-0.6,0-1.3,0-2,0c-0.9,0-1.7,0-2.6,0c-0.5,0-0.7-0.3-0.5-0.7c0.1-0.3-0.1-0.5-0.3-0.6c-0.4-0.3-0.5-0.5-0.2-1
					c0.2-0.4,0.3-0.8,0.3-1.2c0-0.2,0-0.3-0.1-0.5c-0.1,0.5-0.2,1-0.4,1.5c-0.1-0.3-0.2-0.6-0.3-0.9c0-0.2-0.1-0.4-0.2-0.6
					c0,0,0-0.1,0-0.1c-0.1-0.4,0.1-0.7,0.4-1c0.1-0.1,0.3-0.2,0.2-0.5c-0.3,0.3-0.5,0.6-0.7,0.8C45.9,16.7,45.8,16.4,45.7,16.2z
					 M50,15.7c0.4,0.5,0.8,1,1.3,1.4c0.5,0.6,1,1.3,0.9,2.1c0,0.1,0,0.1,0,0.2c0,0.1,0,0.2,0.1,0.2c0,0,0.1-0.1,0.2-0.1
					c0-0.1,0-0.2,0-0.4c0-0.6-0.2-1.2-0.6-1.6c-0.3-0.4-0.6-0.8-1-1.1C50.6,16.1,50.4,15.8,50,15.7z M49.1,12
					c-1,0.9-1.2,2.1-0.7,3.2c0-0.2,0-0.4,0-0.6c-0.1-0.6,0-1.3,0.4-1.8C49.1,12.6,49.1,12.3,49.1,12z M51.8,12
					c0.4,0.6,0.5,0.6,0.9,0.3C52.4,12.3,52.2,11.9,51.8,12z M50.4,9.7c-0.2-0.4-0.6-0.6-1-0.6C49.8,9.3,50,9.6,50.4,9.7z"/>
				<g>
					<path class="st1" d="M50,24.5c-1,0-2,0-3,0c-0.4,0-0.4-0.1-0.3-0.4c0.1-0.2,0.3-0.4,0.4-0.5c0.3-0.3,0.5-0.6,0.6-1.1
						c0-0.4,0.2-0.5,0.5-0.5c1.2,0,2.3,0,3.5,0c0.3,0,0.5,0.1,0.5,0.4c0,0.6,0.3,1,0.7,1.3c0.1,0.1,0.2,0.2,0.3,0.3
						c0.1,0.1,0.1,0.3,0,0.4s-0.2,0.1-0.3,0.1C52,24.5,51,24.5,50,24.5z M51.1,22.3c-0.2,0-0.4,0-0.6,0c0,0-0.1,0-0.1,0.1
						c0,0.1,0,0.1,0.1,0.1c0.4,0,0.8,0,1.3,0c0.1,0,0.2,0,0.1-0.1c0-0.1-0.1-0.1-0.2-0.1C51.5,22.3,51.3,22.3,51.1,22.3z"/>
				</g>
				<g>
					<path class="st1" d="M50,26.2c-1.5,0-3,0-4.4,0c-0.4,0-0.4,0-0.3-0.4c0.3-0.6,0.8-0.9,1.4-0.9c2.2,0,4.4,0,6.6,0
						c0.6,0,1.1,0.3,1.4,0.9c0.1,0.3,0.1,0.4-0.3,0.4C53,26.2,51.5,26.2,50,26.2z M52.6,25.4c0.3,0,0.6,0,0.8,0c0.1,0,0.2,0,0.2-0.1
						c0-0.1-0.1-0.1-0.2-0.1c-0.6,0-1.1,0-1.6,0c-0.1,0-0.2,0-0.2,0.1c0,0.1,0.1,0.1,0.2,0.1C52,25.4,52.3,25.4,52.6,25.4z"/>
				</g>
				<path class="st5" d="M50,15.7c0.4,0.1,0.6,0.5,0.9,0.7c0.4,0.3,0.7,0.7,1,1.1c0.4,0.5,0.6,1,0.6,1.6c0,0.1,0,0.2,0,0.4
					c0,0-0.1,0.1-0.2,0.1s-0.1-0.1-0.1-0.1c-0.1-0.1-0.1-0.1-0.1-0.2c0.1-0.9-0.4-1.5-0.9-2.1C50.8,16.7,50.4,16.1,50,15.7z"/>
				<path class="st5" d="M49.1,12c0,0.4,0,0.6-0.3,0.8c-0.5,0.5-0.5,1.1-0.4,1.8c0,0.2,0.1,0.4,0,0.6C47.9,14,48.1,12.8,49.1,12z"/>
				<path class="st5" d="M51.8,12c0.4-0.1,0.6,0.3,0.9,0.3C52.4,12.6,52.3,12.5,51.8,12z"/>
				<path class="st5" d="M50.4,9.7c-0.4-0.1-0.6-0.5-1-0.6C49.9,9.2,50.2,9.4,50.4,9.7z"/>
				<path class="st5" d="M51.1,22.3c0.2,0,0.4,0,0.6,0c0.1,0,0.2,0,0.2,0.1c0,0.1,0,0.1-0.1,0.1c-0.4,0-0.8,0-1.3,0
					c-0.1,0-0.1,0-0.1-0.1c0-0.1,0.1-0.1,0.1-0.1C50.7,22.3,50.9,22.3,51.1,22.3z"/>
				<path class="st5" d="M52.6,25.4c-0.3,0-0.5,0-0.8,0c-0.1,0-0.2,0-0.2-0.1c0-0.1,0.1-0.1,0.2-0.1c0.6,0,1.1,0,1.6,0
					c0.1,0,0.2,0,0.2,0.1c0,0.1-0.1,0.1-0.2,0.1C53.1,25.4,52.9,25.4,52.6,25.4z"/>
			</g>
		</g>
		<g>
			<path class="st1" d="M11.3,44.6V34h5.1v1.6h-2.6v2.3h2.6v1.6h-2.6v5C13.8,44.6,11.3,44.6,11.3,44.6z"/>
			<path class="st1" d="M18.7,44.6V34h5.1v1.6h-2.6v2.3h2.6v1.6h-2.6V43h2.6v1.6C23.7,44.6,18.7,44.6,18.7,44.6z"/>
			<path class="st1" d="M26,34h2.5c2.7,0,3.7,0.4,3.7,3.6v3.8c0,2-0.6,3.2-3.7,3.2H26C26,44.6,26,34,26,34z M28.4,43.1
				c1.2,0,1.3-0.5,1.3-1.5v-4.4c0-1.4,0-1.7-1.3-1.7V43.1z"/>
			<path class="st1" d="M34.6,44.6V34h5.1v1.6h-2.6v2.3h2.6v1.6h-2.6V43h2.6v1.6C39.7,44.6,34.6,44.6,34.6,44.6z"/>
			<path class="st1" d="M41.8,44.6V34h2.5c2.4,0,3.7,0.2,3.7,2.5c0,1.3-0.6,2.2-1.9,2.4v0c1.2,0,1.9,0.5,1.9,2v2.2
				c0,0.4,0.1,1,0.4,1.5H46c-0.3-0.4-0.4-1-0.4-1.5v-2.3c0-0.7-0.4-1.1-0.9-1.1h-0.4v4.8L41.8,44.6L41.8,44.6z M44.3,38.3
				c1.1,0,1.3-0.4,1.3-1.4c0-1-0.2-1.4-1.3-1.4V38.3z"/>
			<path class="st1" d="M55.6,34l1.4,10.6h-2.4L54.2,42h-1.4l-0.4,2.6h-2.1L52.2,34H55.6z M54,40.4l-0.4-4.7h0l-0.4,4.7H54z"/>
			<path class="st1" d="M65.4,40.5v1.4c0,2-1,2.9-3.1,2.9c-1.6,0-3.1-0.6-3.1-3.1v-4.8c0-2.4,1.5-3.1,3.1-3.1c1.8,0,3.1,0.5,3.1,2.8
				v1.2h-2.5v-1.5c0-0.4-0.1-0.8-0.6-0.8s-0.6,0.4-0.6,0.8v6c0,0.4,0.1,0.8,0.6,0.8s0.6-0.4,0.6-0.8v-1.8L65.4,40.5L65.4,40.5z"/>
			<path class="st1" d="M67.8,44.6V34h2.5v10.6H67.8z"/>
			<path class="st1" d="M78.9,41.7c0,2.4-1.5,3.1-3.1,3.1s-3.1-0.6-3.1-3.1v-4.8c0-2.4,1.5-3.1,3.1-3.1s3.1,0.6,3.1,3.1V41.7z
				 M74.7,33.4l1.4-2.1h1.7l-2.2,2.1H74.7z M75.1,42.3c0,0.4,0.1,0.8,0.6,0.8c0.5,0,0.6-0.4,0.6-0.8v-6c0-0.4-0.1-0.8-0.6-0.8
				c-0.5,0-0.6,0.4-0.6,0.8V42.3z"/>
			<path class="st1" d="M81.3,34h3.4l1.6,7.7h0V34h1.9v10.6H85l-1.8-8.8h0v8.8h-1.9L81.3,34L81.3,34z"/>
		</g>
		<g>
			<path class="st1" d="M16.9,49.9H18c1.3,0,1.7,0.3,1.7,2V54c0,1.1-0.3,1.8-1.7,1.8h-1.2V49.9z M18.1,54.9c0.6,0,0.6-0.3,0.6-0.8
				v-2.4c0-0.8,0-1-0.6-1V54.9z"/>
			<path class="st1" d="M23.2,54.1c0,1.4-0.7,1.7-1.4,1.7s-1.4-0.4-1.4-1.7v-2.6c0-1.4,0.7-1.7,1.4-1.7s1.4,0.4,1.4,1.7V54.1z
				 M21.5,54.4c0,0.2,0,0.5,0.3,0.5c0.3,0,0.3-0.2,0.3-0.5v-3.3c0-0.2,0-0.5-0.3-0.5c-0.3,0-0.3,0.2-0.3,0.5V54.4z"/>
			<path class="st1" d="M24.7,55.7h-0.9v-5.9h1.7l0.5,4.2l0,0l0.5-4.2h1.6v5.9h-1v-5l0,0l-0.6,5h-1l-0.6-5l0,0L24.7,55.7
				C24.7,55.7,24.7,55.7,24.7,55.7z"/>
			<path class="st1" d="M28.6,55.7v-5.9h1.1v5.9C29.8,55.7,28.6,55.7,28.6,55.7z"/>
			<path class="st1" d="M30.3,49.9h1.6l0.7,4.3l0,0v-4.3h0.9v5.9h-1.5l-0.8-4.9l0,0v4.9h-0.9C30.3,55.7,30.3,49.9,30.3,49.9z"/>
			<path class="st1" d="M34,55.7v-5.9h1.1v5.9C35.2,55.7,34,55.7,34,55.7z"/>
			<path class="st1" d="M38.6,53.4v0.8c0,1.1-0.5,1.6-1.4,1.6c-0.7,0-1.4-0.4-1.4-1.7v-2.6c0-1.4,0.7-1.7,1.4-1.7
				c0.8,0,1.4,0.3,1.4,1.6V52h-1.1v-0.8c0-0.2,0-0.5-0.3-0.5c-0.2,0-0.3,0.2-0.3,0.5v3.3c0,0.2,0,0.5,0.3,0.5c0.3,0,0.3-0.2,0.3-0.5
				v-1L38.6,53.4L38.6,53.4z"/>
			<path class="st1" d="M41.5,49.9l0.6,5.9H41l-0.1-1.4h-0.6l-0.2,1.4h-1l0.8-5.9H41.5z M40.8,53.4l-0.2-2.6l0,0l-0.2,2.6H40.8z"/>
			<path class="st1" d="M42.6,49.9h1.6l0.7,4.3l0,0v-4.3h0.9v5.9h-1.5l-0.8-4.9l0,0v4.9h-0.9C42.6,55.7,42.6,49.9,42.6,49.9z"/>
			<path class="st1" d="M48.6,49.9l0.6,5.9h-1.1L48,54.3h-0.6l-0.2,1.4h-1l0.8-5.9H48.6z M48,53.4l-0.2-2.6l0,0l-0.2,2.6H48z"/>
			<path class="st1" d="M51.7,49.9h1.2c1.3,0,1.7,0.3,1.7,2V54c0,1.1-0.3,1.8-1.7,1.8h-1.2V49.9z M52.8,54.9c0.6,0,0.6-0.3,0.6-0.8
				v-2.4c0-0.8,0-1-0.6-1V54.9z"/>
			<path class="st1" d="M55.1,55.7v-5.9h2.4v0.9h-1.2V52h1.2v0.9h-1.2v1.9h1.2v0.9L55.1,55.7L55.1,55.7z"/>
			<path class="st1" d="M62.1,49.9l0.6,5.9h-1.1l-0.1-1.4h-0.6l-0.2,1.4h-1l0.8-5.9H62.1z M61.4,53.4l-0.2-2.6l0,0L61,53.4H61.4z"/>
			<path class="st1" d="M66.1,49.9v4.4c0,0.8-0.2,1.6-1.4,1.6c-0.4,0-1.4-0.2-1.4-1.4v-1h1.1v0.8c0,0.3,0,0.6,0.3,0.6
				s0.3-0.4,0.3-0.6v-4.4C65,49.9,66.1,49.9,66.1,49.9z"/>
			<path class="st1" d="M66.7,55.7v-5.9h2.4v0.9h-1.2V52h1.2v0.9h-1.2v1.9h1.2v0.9L66.7,55.7L66.7,55.7z"/>
			<path class="st1" d="M69.6,49.9h1.2c1.3,0,1.7,0.3,1.7,2V54c0,1.1-0.3,1.8-1.7,1.8h-1.2V49.9z M70.7,54.9c0.6,0,0.6-0.3,0.6-0.8
				v-2.4c0-0.8,0-1-0.6-1V54.9z"/>
			<path class="st1" d="M73,55.7v-5.9h1.1c1.1,0,1.7,0.1,1.7,1.4c0,0.7-0.3,1.2-0.9,1.4l0,0c0.6,0,0.9,0.3,0.9,1.1v1.2
				c0,0.2,0,0.6,0.2,0.8h-1.1c-0.1-0.2-0.2-0.6-0.2-0.8v-1.3c0-0.4-0.2-0.6-0.4-0.6h-0.2v2.7L73,55.7L73,55.7L73,55.7L73,55.7z
				 M74.1,52.2c0.5,0,0.6-0.2,0.6-0.7c0-0.5-0.1-0.7-0.6-0.7V52.2z"/>
			<path class="st1" d="M76.5,55.7v-5.9h2.4v0.9h-1.2V52h1.2v0.9h-1.2v1.9h1.2v0.9L76.5,55.7L76.5,55.7z"/>
			<path class="st1" d="M79.2,55.7v-1l1.3-4h-1.3v-0.9h2.5v0.9l-1.4,4.1h1.4v0.9C81.6,55.7,79.2,55.7,79.2,55.7z"/>
		</g>
	</g>
</g>
</svg>
