<?xml version="1.0" encoding="utf-8"?>
<!-- Generator: Adobe Illustrator 25.2.1, SVG Export Plug-In . SVG Version: 6.00 Build 0)  -->
<svg version="1.1" id="Capa_1" xmlns="http://www.w3.org/2000/svg" xmlns:xlink="http://www.w3.org/1999/xlink" x="0px" y="0px"
	 viewBox="0 0 50 50" style="enable-background:new 0 0 50 50;" xml:space="preserve">
<style type="text/css">
	.st0{fill:#FFFFFF;}
	.st1{fill:#1D1F3F;}
	.st2{clip-path:url(#SVGID_2_);}
	.st3{fill:#424898;}
	.st4{fill:#EA4D58;}
	.st5{fill:#F2F2F2;}
</style>
<polygon class="st0" points="42.8,36.4 25,46.8 7.2,36.4 7.2,3.2 42.8,3.2 "/>
<g>
	<g>
		<polygon class="st1" points="41.4,24.3 41.4,35.6 25,45.2 8.6,35.6 8.6,24.3 7.2,24.3 7.2,36.4 25,46.8 42.8,36.4 42.8,24.3 		"/>
		<polygon class="st1" points="8.6,15.9 8.6,4.5 41.4,4.5 41.4,15.9 42.8,15.9 42.8,3.2 7.2,3.2 7.2,15.9 		"/>
	</g>
	<g>
		<g>
			<g>
				<g>
					<g>
						<defs>
							<polygon id="SVGID_1_" points="10.1,31.1 39.8,31.1 39.8,34.9 25,42.9 10.1,34.9 							"/>
						</defs>
						<clipPath id="SVGID_2_">
							<use xlink:href="#SVGID_1_"  style="overflow:visible;"/>
						</clipPath>
						<g class="st2">
							<rect x="10.1" y="30.9" class="st3" width="3.4" height="3.1"/>
							<rect x="16.7" y="30.9" class="st3" width="3.4" height="3.1"/>
							<rect x="23.3" y="30.9" class="st3" width="3.4" height="3.1"/>
							<rect x="29.9" y="30.9" class="st3" width="3.4" height="3.1"/>
							<rect x="36.5" y="30.9" class="st3" width="3.4" height="3.1"/>
							<rect x="13.5" y="33.9" class="st4" width="3.4" height="3.1"/>
							<rect x="20.2" y="33.9" class="st4" width="3.4" height="3.1"/>
							<rect x="26.8" y="33.9" class="st4" width="3.4" height="3.1"/>
							<rect x="33.3" y="33.9" class="st4" width="3.4" height="3.1"/>
							<rect x="16.7" y="37" class="st3" width="3.4" height="3.1"/>
							<rect x="23.3" y="37" class="st3" width="3.4" height="3.1"/>
							<rect x="29.9" y="37" class="st3" width="3.4" height="3.1"/>
							<rect x="20.2" y="40.1" class="st4" width="3.4" height="3.1"/>
							<rect x="26.8" y="40.1" class="st4" width="3.4" height="3.1"/>
						</g>
					</g>
				</g>
			</g>
		</g>
	</g>
	<g>
		<polygon class="st4" points="11.9,8.7 12.3,9.7 13.3,9.8 12.6,10.5 12.8,11.6 11.9,11.1 11,11.6 11.1,10.5 10.4,9.8 11.4,9.7 		
			"/>
		<polygon class="st4" points="38.1,8.7 38.6,9.7 39.6,9.8 38.9,10.5 39,11.6 38.1,11.1 37.2,11.6 37.4,10.5 36.7,9.8 37.7,9.7 		
			"/>
		<g>
			<polygon class="st1" points="17.8,8.1 18.5,9.4 20,9.7 18.9,10.7 19.2,12.2 17.8,11.5 16.5,12.2 16.7,10.7 15.7,9.7 17.2,9.4 			
				"/>
		</g>
		<g>
			<polygon class="st1" points="32.1,8.1 32.8,9.4 34.3,9.7 33.2,10.7 33.4,12.2 32.1,11.5 30.8,12.2 31,10.7 29.9,9.7 31.4,9.4 			
				"/>
		</g>
		<g>
			<path class="st1" d="M23,9.6c0-0.2,0-0.4,0.2-0.6c0.1,0,0.1-0.1,0.1-0.2C23.3,9,23.1,9,23,9.2c-0.1-0.1-0.1-0.3-0.1-0.4
				c0-0.2,0.1-0.3,0.2-0.4c0.1-0.1,0.2-0.1,0.3-0.3c-0.2,0.2-0.3,0.2-0.5,0.3c0-0.1,0-0.2,0-0.2c0-0.3,0-0.4,0.4-0.5
				c0.1,0,0.2-0.1,0.3-0.2c-0.2,0.1-0.4,0.1-0.6,0.1C23,7.5,23,7.4,23,7.3c0-0.2,0.1-0.2,0.3-0.2c0.2,0,0.3,0,0.5-0.1
				c-0.2,0-0.4,0-0.6,0c0.2-0.4,0.5-0.6,1-0.5c0,0,0,0,0,0c-0.1,0-0.2-0.1-0.3-0.1c0.3-0.4,2-0.5,2.6,0.3c0,0-0.1,0-0.1,0
				c-0.1,0-0.2,0.1-0.3,0.2C26,7,26.1,7,26.2,7.1c0.1,0.2,0.2,0.5,0.2,0.7c0,0.3,0.2,0.6,0.4,0.9C26.9,8.9,27,9,26.9,9.2
				c0,0,0,0.1,0,0.1c-0.1,0.3-0.1,0.3-0.5,0.3c0,0-0.1,0-0.1,0c-0.1,0.1-0.2,0-0.3-0.1c-0.1-0.2-0.2-0.3-0.4-0.3
				c-0.2,0-0.4-0.1-0.5-0.3c0.1,0.5,0.5,0.8,0.8,1.1c0.1,0.1,0.2,0.3,0.4,0.4c0,0,0,0.1,0.1,0.1c0.1,0.1,0.1,0.2,0.2,0.3
				c0,0.1,0.1,0.2,0.1,0.4c0,0.2,0,0.3-0.2,0.4c-0.2,0.1-0.2,0.2-0.2,0.5c0,0.2-0.1,0.3-0.2,0.3c-0.3,0-0.6,0-0.9,0
				c-0.4,0-0.8,0-1.2,0c-0.2,0-0.3-0.1-0.2-0.3c0-0.1,0-0.2-0.1-0.3c-0.2-0.1-0.2-0.2-0.1-0.4c0.1-0.2,0.1-0.4,0.1-0.5
				c0-0.1,0-0.1,0-0.2c-0.1,0.2-0.1,0.5-0.2,0.7c-0.1-0.1-0.1-0.3-0.1-0.4c0-0.1-0.1-0.2-0.1-0.3c0,0,0,0,0-0.1
				c0-0.2,0.1-0.3,0.2-0.5c0-0.1,0.1-0.1,0.1-0.2c-0.1,0.1-0.2,0.3-0.3,0.4C23.1,9.8,23.1,9.7,23,9.6z M25,9.4
				c0.2,0.2,0.4,0.4,0.6,0.7c0.2,0.3,0.4,0.6,0.4,1c0,0,0,0.1,0,0.1c0,0.1,0,0.1,0.1,0.1c0,0,0.1,0,0.1-0.1c0,0,0-0.1,0-0.2
				c0-0.3-0.1-0.5-0.3-0.7c-0.1-0.2-0.3-0.3-0.5-0.5C25.3,9.6,25.2,9.5,25,9.4z M24.6,7.7c-0.5,0.4-0.5,0.9-0.3,1.4
				c0-0.1,0-0.2,0-0.3c0-0.3,0-0.6,0.2-0.8C24.6,8,24.6,7.9,24.6,7.7z M25.8,7.7C26,8,26.1,8,26.2,7.9C26.1,7.9,26,7.7,25.8,7.7z
				 M25.2,6.7c-0.1-0.2-0.3-0.3-0.5-0.3C24.9,6.5,25,6.7,25.2,6.7z"/>
			<g>
				<path class="st1" d="M25,13.4c-0.5,0-0.9,0-1.3,0c-0.2,0-0.2,0-0.1-0.2c0-0.1,0.1-0.2,0.2-0.2c0.1-0.1,0.2-0.3,0.3-0.5
					c0-0.2,0.1-0.2,0.2-0.2c0.5,0,1,0,1.6,0c0.1,0,0.2,0.1,0.2,0.2c0,0.3,0.1,0.4,0.3,0.6c0,0,0.1,0.1,0.1,0.1c0,0.1,0.1,0.1,0,0.2
					c0,0.1-0.1,0-0.1,0C25.9,13.4,25.5,13.4,25,13.4z M25.5,12.4c-0.1,0-0.2,0-0.3,0c0,0-0.1,0-0.1,0c0,0,0,0.1,0.1,0.1
					c0.2,0,0.4,0,0.6,0c0,0,0.1,0,0.1-0.1c0,0,0,0-0.1,0C25.7,12.4,25.6,12.4,25.5,12.4z"/>
			</g>
			<g>
				<path class="st1" d="M25,14.2c-0.7,0-1.3,0-2,0c-0.2,0-0.2,0-0.1-0.2c0.1-0.3,0.4-0.4,0.7-0.4c1,0,2,0,3,0
					c0.3,0,0.5,0.1,0.6,0.4c0,0.1,0,0.2-0.1,0.2C26.3,14.2,25.7,14.2,25,14.2z M26.2,13.8c0.1,0,0.3,0,0.4,0c0,0,0.1,0,0.1-0.1
					c0,0,0,0-0.1-0.1c-0.3,0-0.5,0-0.7,0c0,0-0.1,0-0.1,0.1c0,0,0.1,0.1,0.1,0.1C25.9,13.8,26,13.8,26.2,13.8z"/>
			</g>
			<path class="st5" d="M25,9.4c0.2,0.1,0.3,0.2,0.4,0.3c0.2,0.1,0.3,0.3,0.5,0.5c0.2,0.2,0.3,0.5,0.3,0.7c0,0.1,0,0.1,0,0.2
				c0,0,0,0.1-0.1,0.1c0,0-0.1,0-0.1-0.1c0,0,0-0.1,0-0.1c0-0.4-0.2-0.7-0.4-1C25.4,9.8,25.2,9.6,25,9.4z"/>
			<path class="st5" d="M24.6,7.7c0,0.2,0,0.3-0.1,0.4c-0.2,0.2-0.2,0.5-0.2,0.8c0,0.1,0,0.2,0,0.3C24,8.6,24.1,8.1,24.6,7.7z"/>
			<path class="st5" d="M25.8,7.7c0.2,0,0.3,0.1,0.4,0.1C26.1,8,26,8,25.8,7.7z"/>
			<path class="st5" d="M25.2,6.7c-0.2-0.1-0.3-0.2-0.5-0.3C24.9,6.5,25.1,6.6,25.2,6.7z"/>
			<path class="st5" d="M25.5,12.4c0.1,0,0.2,0,0.3,0c0,0,0.1,0,0.1,0c0,0,0,0.1-0.1,0.1c-0.2,0-0.4,0-0.6,0c0,0-0.1,0-0.1-0.1
				c0,0,0,0,0.1,0C25.3,12.4,25.4,12.4,25.5,12.4z"/>
			<path class="st5" d="M26.2,13.8c-0.1,0-0.2,0-0.4,0c0,0-0.1,0-0.1-0.1c0-0.1,0-0.1,0.1-0.1c0.3,0,0.5,0,0.7,0c0,0,0.1,0,0.1,0.1
				c0,0.1,0,0.1-0.1,0.1C26.4,13.8,26.3,13.8,26.2,13.8z"/>
		</g>
	</g>
	<g>
		<path class="st1" d="M7.4,22.6v-4.8h2.3v0.7H8.6v1h1.2v0.7H8.6v2.3C8.6,22.6,7.4,22.6,7.4,22.6z"/>
		<path class="st1" d="M10.8,22.6v-4.8h2.3v0.7h-1.2v1H13v0.7h-1.2v1.6h1.2v0.7C13.1,22.6,10.8,22.6,10.8,22.6z"/>
		<path class="st1" d="M14.1,17.7h1.1c1.2,0,1.7,0.2,1.7,1.6v1.7c0,0.9-0.3,1.4-1.7,1.4h-1.1C14.1,22.5,14.1,17.7,14.1,17.7z
			 M15.2,21.9c0.5,0,0.6-0.2,0.6-0.7v-2c0-0.6,0-0.8-0.6-0.8V21.9z"/>
		<path class="st1" d="M18,22.6v-4.8h2.3v0.7h-1.2v1h1.2v0.7h-1.2v1.6h1.2v0.7C20.3,22.6,18,22.6,18,22.6z"/>
		<path class="st1" d="M21.3,22.6v-4.8h1.1c1.1,0,1.7,0.1,1.7,1.1c0,0.6-0.3,1-0.9,1.1v0c0.5,0,0.9,0.2,0.9,0.9v1
			c0,0.2,0,0.5,0.2,0.7h-1.1C23,22.4,23,22.1,23,21.9v-1c0-0.3-0.2-0.5-0.4-0.5h-0.2v2.2L21.3,22.6L21.3,22.6z M22.4,19.7
			c0.5,0,0.6-0.2,0.6-0.6c0-0.5-0.1-0.6-0.6-0.6V19.7z"/>
		<path class="st1" d="M27.5,17.7l0.6,4.8H27l-0.1-1.2h-0.6l-0.2,1.2h-0.9l0.8-4.8H27.5z M26.8,20.6l-0.2-2.1h0l-0.2,2.1H26.8z"/>
		<path class="st1" d="M32,20.7v0.6c0,0.9-0.5,1.3-1.4,1.3c-0.7,0-1.4-0.3-1.4-1.4v-2.2c0-1.1,0.7-1.4,1.4-1.4
			c0.8,0,1.4,0.2,1.4,1.3v0.5h-1.1v-0.7c0-0.2-0.1-0.4-0.3-0.4c-0.2,0-0.3,0.2-0.3,0.4v2.7c0,0.2,0.1,0.4,0.3,0.4
			c0.2,0,0.3-0.2,0.3-0.4v-0.8L32,20.7L32,20.7z"/>
		<path class="st1" d="M33.1,22.6v-4.8h1.1v4.8H33.1z"/>
		<path class="st1" d="M38.1,21.2c0,1.1-0.7,1.4-1.4,1.4s-1.4-0.3-1.4-1.4v-2.2c0-1.1,0.7-1.4,1.4-1.4s1.4,0.3,1.4,1.4V21.2z
			 M36.2,17.5l0.7-0.9h0.8l-1,0.9H36.2z M36.4,21.5c0,0.2,0.1,0.4,0.3,0.4s0.3-0.2,0.3-0.4v-2.7c0-0.2-0.1-0.4-0.3-0.4
			s-0.3,0.2-0.3,0.4V21.5z"/>
		<path class="st1" d="M39.2,17.7h1.5l0.7,3.5h0v-3.5h0.9v4.8h-1.4l-0.8-4h0v4h-0.9L39.2,17.7L39.2,17.7z"/>
	</g>
	<g>
		<path class="st1" d="M9.9,24.9h0.5c0.6,0,0.8,0.1,0.8,0.9v0.9c0,0.5-0.1,0.8-0.8,0.8H9.9V24.9z M10.5,27.2c0.3,0,0.3-0.1,0.3-0.4
			v-1.1c0-0.4,0-0.4-0.3-0.4V27.2z"/>
		<path class="st1" d="M12.8,26.9c0,0.6-0.3,0.8-0.7,0.8s-0.7-0.2-0.7-0.8v-1.2c0-0.6,0.3-0.8,0.7-0.8s0.7,0.2,0.7,0.8V26.9z M12,27
			c0,0.1,0,0.2,0.1,0.2c0.1,0,0.1-0.1,0.1-0.2v-1.5c0-0.1,0-0.2-0.1-0.2c-0.1,0-0.1,0.1-0.1,0.2V27z"/>
		<path class="st1" d="M13.5,27.6h-0.4v-2.7h0.8l0.2,1.9l0,0l0.2-1.9H15v2.7h-0.5v-2.3l0,0l-0.3,2.3h-0.5l-0.3-2.3l0,0L13.5,27.6
			C13.5,27.6,13.5,27.6,13.5,27.6z"/>
		<path class="st1" d="M15.3,27.6v-2.7h0.5v2.7C15.8,27.6,15.3,27.6,15.3,27.6z"/>
		<path class="st1" d="M16.1,24.9h0.7l0.3,1.9l0,0v-1.9h0.4v2.7h-0.7l-0.4-2.2l0,0v2.2h-0.4C16.1,27.6,16.1,24.9,16.1,24.9z"/>
		<path class="st1" d="M17.7,27.6v-2.7h0.5v2.7C18.3,27.6,17.7,27.6,17.7,27.6z"/>
		<path class="st1" d="M19.8,26.6v0.4c0,0.5-0.2,0.7-0.7,0.7c-0.3,0-0.7-0.2-0.7-0.8v-1.2c0-0.6,0.3-0.8,0.7-0.8
			c0.4,0,0.7,0.1,0.7,0.7v0.3h-0.5v-0.4c0-0.1,0-0.2-0.1-0.2c-0.1,0-0.1,0.1-0.1,0.2V27c0,0.1,0,0.2,0.1,0.2s0.1-0.1,0.1-0.2v-0.5
			L19.8,26.6L19.8,26.6z"/>
		<path class="st1" d="M21.2,24.9l0.3,2.7h-0.5L20.9,27h-0.3l-0.1,0.7h-0.5l0.4-2.7H21.2z M20.8,26.5l-0.1-1.2l0,0l-0.1,1.2H20.8z"
			/>
		<path class="st1" d="M21.6,24.9h0.7l0.3,1.9l0,0v-1.9h0.4v2.7h-0.7l-0.4-2.2l0,0v2.2h-0.4C21.6,27.6,21.6,24.9,21.6,24.9z"/>
		<path class="st1" d="M24.4,24.9l0.3,2.7h-0.5L24.1,27h-0.3l-0.1,0.7h-0.4l0.4-2.7H24.4z M24.1,26.5L24,25.4l0,0l-0.1,1.2H24.1z"/>
		<path class="st1" d="M25.8,24.9h0.5c0.6,0,0.8,0.1,0.8,0.9v0.9c0,0.5-0.1,0.8-0.8,0.8h-0.5V24.9z M26.3,27.2
			c0.3,0,0.3-0.1,0.3-0.4v-1.1c0-0.4,0-0.4-0.3-0.4V27.2z"/>
		<path class="st1" d="M27.3,27.6v-2.7h1.1v0.4h-0.5v0.6h0.5v0.4h-0.5v0.9h0.5v0.4L27.3,27.6L27.3,27.6z"/>
		<path class="st1" d="M30.5,24.9l0.3,2.7h-0.5L30.2,27H30l-0.1,0.7h-0.4l0.4-2.7H30.5z M30.2,26.5l-0.1-1.2l0,0L30,26.5H30.2z"/>
		<path class="st1" d="M32.3,24.9v2c0,0.4-0.1,0.7-0.7,0.7c-0.2,0-0.7-0.1-0.7-0.7v-0.4h0.5V27c0,0.1,0,0.3,0.1,0.3s0.1-0.2,0.1-0.3
			v-2C31.8,24.9,32.3,24.9,32.3,24.9z"/>
		<path class="st1" d="M32.6,27.6v-2.7h1.1v0.4h-0.5v0.6h0.5v0.4h-0.5v0.9h0.5v0.4L32.6,27.6L32.6,27.6z"/>
		<path class="st1" d="M33.9,24.9h0.5c0.6,0,0.8,0.1,0.8,0.9v0.9c0,0.5-0.1,0.8-0.8,0.8h-0.5V24.9z M34.4,27.2
			c0.3,0,0.3-0.1,0.3-0.4v-1.1c0-0.4,0-0.4-0.3-0.4V27.2z"/>
		<path class="st1" d="M35.5,27.6v-2.7H36c0.5,0,0.8,0.1,0.8,0.6c0,0.3-0.1,0.5-0.4,0.6l0,0c0.3,0,0.4,0.1,0.4,0.5v0.5
			c0,0.1,0,0.3,0.1,0.4h-0.5c-0.1-0.1-0.1-0.3-0.1-0.4v-0.6c0-0.2-0.1-0.3-0.2-0.3H36v1.2L35.5,27.6L35.5,27.6L35.5,27.6L35.5,27.6z
			 M36,26c0.2,0,0.3-0.1,0.3-0.3c0-0.2,0-0.3-0.3-0.3V26z"/>
		<path class="st1" d="M37,27.6v-2.7h1.1v0.4h-0.5v0.6h0.5v0.4h-0.5v0.9h0.5v0.4L37,27.6L37,27.6z"/>
		<path class="st1" d="M38.3,27.6v-0.5l0.6-1.8h-0.6v-0.4h1.1v0.4l-0.6,1.9h0.6v0.4C39.4,27.6,38.3,27.6,38.3,27.6z"/>
	</g>
</g>
</svg>
