<?xml version="1.0" encoding="utf-8"?>
<!-- Generator: Adobe Illustrator 25.2.1, SVG Export Plug-In . SVG Version: 6.00 Build 0)  -->
<svg version="1.1" id="Capa_1" xmlns="http://www.w3.org/2000/svg" xmlns:xlink="http://www.w3.org/1999/xlink" x="0px" y="0px"
	 viewBox="0 0 50 50" style="enable-background:new 0 0 50 50;" xml:space="preserve">
<style type="text/css">
	.st0{fill:#1D1F3F;}
	.st1{clip-path:url(#SVGID_2_);}
	.st2{fill:#424898;}
	.st3{fill:#EA4D58;}
	.st4{fill:#F2F2F2;}
</style>
<g>
	<g>
		<polygon class="st0" points="42.34,24.27 42.34,36.24 25,46.41 7.66,36.24 7.66,24.27 6.2,24.27 6.2,37.07 25,48.1 43.8,37.07 
			43.8,24.27 		"/>
		<polygon class="st0" points="7.66,15.33 7.66,3.36 42.34,3.36 42.34,15.33 43.8,15.33 43.8,1.9 6.2,1.9 6.2,15.33 		"/>
	</g>
	<g>
		<g>
			<defs>
				<polygon id="SVGID_1_" points="9.25,31.45 40.69,31.45 40.69,35.44 25,43.94 9.25,35.49 				"/>
			</defs>
			<clipPath id="SVGID_2_">
				<use xlink:href="#SVGID_1_"  style="overflow:visible;"/>
			</clipPath>
			<g class="st1">
				<rect x="9.25" y="31.22" class="st2" width="3.57" height="3.24"/>
				<rect x="16.23" y="31.22" class="st2" width="3.57" height="3.24"/>
				<rect x="23.22" y="31.22" class="st2" width="3.57" height="3.24"/>
				<rect x="30.22" y="31.22" class="st2" width="3.57" height="3.24"/>
				<rect x="37.11" y="31.22" class="st2" width="3.57" height="3.24"/>
				<rect x="12.89" y="34.46" class="st3" width="3.57" height="3.24"/>
				<rect x="19.88" y="34.46" class="st3" width="3.57" height="3.24"/>
				<rect x="26.88" y="34.46" class="st3" width="3.57" height="3.24"/>
				<rect x="33.77" y="34.46" class="st3" width="3.57" height="3.24"/>
				<rect x="16.23" y="37.7" class="st2" width="3.57" height="3.24"/>
				<rect x="23.22" y="37.7" class="st2" width="3.57" height="3.24"/>
				<rect x="30.22" y="37.7" class="st2" width="3.57" height="3.24"/>
				<rect x="19.88" y="40.94" class="st3" width="3.57" height="3.24"/>
				<rect x="26.88" y="40.94" class="st3" width="3.57" height="3.24"/>
			</g>
		</g>
	</g>
	<g>
		<polygon class="st3" points="11.11,7.79 11.59,8.77 12.68,8.94 11.9,9.71 12.09,10.8 11.11,10.28 10.15,10.8 10.32,9.71 
			9.54,8.94 10.63,8.77 		"/>
		<polygon class="st3" points="38.89,7.79 39.37,8.77 40.46,8.94 39.68,9.71 39.85,10.8 38.89,10.28 37.91,10.8 38.1,9.71 
			37.32,8.94 38.41,8.77 		"/>
		<g>
			<polygon class="st0" points="17.42,7.12 18.13,8.54 19.69,8.77 18.55,9.9 18.82,11.47 17.42,10.73 16,11.47 16.27,9.9 
				15.12,8.77 16.71,8.54 			"/>
		</g>
		<g>
			<polygon class="st0" points="32.5,7.12 33.21,8.54 34.8,8.77 33.65,9.9 33.92,11.47 32.5,10.73 31.1,11.47 31.35,9.9 30.22,8.77 
				31.79,8.54 			"/>
		</g>
		<g>
			<path class="st0" d="M22.93,8.75c-0.04-0.25,0.02-0.46,0.25-0.61c0.06-0.04,0.15-0.13,0.1-0.25c-0.1,0.17-0.29,0.23-0.42,0.38
				c-0.06-0.15-0.1-0.27-0.13-0.42c-0.02-0.19,0.1-0.29,0.23-0.38c0.1-0.08,0.23-0.15,0.29-0.33c-0.17,0.17-0.36,0.21-0.52,0.36
				c-0.02-0.08-0.02-0.17-0.02-0.23c-0.02-0.36,0.04-0.46,0.4-0.56c0.13-0.04,0.25-0.06,0.36-0.21c-0.23,0.06-0.44,0.1-0.67,0.15
				c0.04-0.15,0.06-0.27,0.08-0.38c0.04-0.17,0.13-0.23,0.29-0.25s0.36,0,0.54-0.13c-0.23,0-0.4,0-0.61,0
				c0.21-0.46,0.52-0.65,1.02-0.54c0-0.02,0-0.04,0-0.04c-0.1-0.02-0.19-0.06-0.29-0.08c0.36-0.44,2.07-0.5,2.76,0.36
				c-0.04,0-0.1,0.02-0.15,0.02c-0.13,0.04-0.23,0.1-0.31,0.19c-0.08,0.13,0.06,0.21,0.1,0.29c0.1,0.25,0.21,0.48,0.23,0.77
				c0.02,0.33,0.21,0.67,0.44,0.92c0.15,0.17,0.17,0.31,0.08,0.5c-0.02,0.02-0.02,0.06-0.04,0.08c-0.15,0.36-0.15,0.36-0.52,0.29
				c-0.04,0-0.08-0.02-0.13,0c-0.13,0.06-0.21,0-0.27-0.15c-0.08-0.19-0.23-0.27-0.42-0.29c-0.23,0-0.4-0.15-0.58-0.33
				c0.15,0.52,0.52,0.84,0.88,1.15c0.13,0.13,0.25,0.27,0.4,0.4c0.02,0.04,0.04,0.06,0.06,0.06c0.06,0.1,0.15,0.23,0.21,0.33
				c0.04,0.13,0.1,0.25,0.1,0.38c0.02,0.17,0.04,0.31-0.17,0.44c-0.21,0.1-0.23,0.25-0.17,0.48c0.04,0.17-0.06,0.31-0.25,0.31
				c-0.31,0-0.63,0-0.94,0c-0.42,0-0.81,0-1.23,0c-0.23,0-0.33-0.13-0.25-0.36c0.04-0.15-0.04-0.23-0.13-0.29
				c-0.21-0.13-0.23-0.25-0.1-0.46c0.1-0.17,0.13-0.38,0.15-0.58c0-0.08,0.02-0.15-0.04-0.23c-0.06,0.23-0.1,0.48-0.21,0.71
				c-0.06-0.15-0.1-0.29-0.15-0.42c-0.02-0.1-0.06-0.19-0.08-0.29c0.02-0.02,0-0.04-0.02-0.06c-0.04-0.21,0.06-0.36,0.19-0.48
				c0.04-0.06,0.13-0.1,0.1-0.23c-0.13,0.15-0.23,0.27-0.36,0.4C23.02,8.98,22.97,8.85,22.93,8.75z M24.98,8.5
				c0.21,0.23,0.4,0.46,0.61,0.69c0.25,0.29,0.46,0.61,0.42,1.02c0,0.04,0,0.06,0.02,0.1c0,0.06,0.02,0.1,0.06,0.08
				c0.02,0,0.06-0.04,0.08-0.06c0.02-0.04,0.02-0.1,0.02-0.17c0-0.31-0.1-0.56-0.29-0.79C25.75,9.19,25.61,9,25.42,8.83
				C25.27,8.73,25.17,8.56,24.98,8.5z M24.56,6.72c-0.48,0.42-0.58,1-0.33,1.52c0.02-0.1,0-0.19-0.02-0.27
				c-0.04-0.31,0-0.63,0.21-0.86C24.56,7.02,24.58,6.89,24.56,6.72z M25.88,6.72C26.09,7,26.13,7,26.32,6.87
				C26.15,6.89,26.04,6.7,25.88,6.72z M25.21,5.66c-0.1-0.17-0.27-0.29-0.48-0.31C24.92,5.43,25.02,5.6,25.21,5.66z"/>
			<g>
				<path class="st0" d="M25,12.76c-0.48,0-0.94,0-1.42,0c-0.17,0-0.19-0.04-0.13-0.19c0.04-0.1,0.13-0.17,0.21-0.23
					c0.15-0.15,0.25-0.31,0.27-0.54c0-0.17,0.1-0.23,0.25-0.23c0.56,0,1.11,0,1.67,0c0.15,0,0.25,0.06,0.25,0.21
					c0,0.27,0.15,0.46,0.33,0.63c0.04,0.04,0.08,0.1,0.15,0.15c0.04,0.06,0.06,0.13,0.02,0.19s-0.1,0.04-0.15,0.04
					C25.96,12.76,25.48,12.76,25,12.76z M25.52,11.7c-0.1,0-0.19,0-0.29,0c-0.02,0-0.06,0-0.06,0.04s0.02,0.06,0.06,0.06
					c0.21,0,0.4,0,0.61,0c0.04,0,0.08-0.02,0.06-0.06c0-0.04-0.04-0.04-0.08-0.04C25.71,11.7,25.61,11.7,25.52,11.7z"/>
			</g>
			<g>
				<path class="st0" d="M25.02,13.55c-0.71,0-1.42,0-2.13,0c-0.19,0-0.21-0.02-0.13-0.19c0.13-0.29,0.38-0.44,0.69-0.44
					c1.04-0.02,2.09-0.02,3.15,0c0.31,0,0.54,0.15,0.67,0.44c0.04,0.13,0.04,0.19-0.13,0.19C26.42,13.55,25.73,13.55,25.02,13.55z
					 M26.23,13.16c0.13,0,0.27,0,0.4,0c0.04,0,0.08,0,0.08-0.06c0-0.04-0.04-0.04-0.08-0.06c-0.27,0-0.54,0-0.79,0
					c-0.04,0-0.1,0-0.08,0.06c0,0.04,0.06,0.06,0.1,0.06C25.98,13.16,26.11,13.16,26.23,13.16z"/>
			</g>
			<path class="st4" d="M24.98,8.5c0.19,0.06,0.29,0.23,0.44,0.33c0.19,0.15,0.33,0.36,0.48,0.54c0.19,0.23,0.31,0.5,0.29,0.79
				c0,0.06,0,0.1-0.02,0.17c-0.02,0.02-0.04,0.06-0.08,0.06s-0.06-0.04-0.06-0.06C26,10.3,26,10.27,26,10.23
				c0.04-0.42-0.17-0.73-0.42-1.02C25.38,8.98,25.17,8.73,24.98,8.5z"/>
			<path class="st4" d="M24.56,6.72c0.02,0.17,0,0.29-0.13,0.4c-0.23,0.23-0.25,0.54-0.21,0.86c0,0.08,0.04,0.17,0.02,0.27
				C23.98,7.71,24.08,7.14,24.56,6.72z"/>
			<path class="st4" d="M25.88,6.72c0.19-0.04,0.27,0.15,0.44,0.15C26.13,7.02,26.09,7,25.88,6.72z"/>
			<path class="st4" d="M25.21,5.66c-0.19-0.06-0.31-0.23-0.48-0.31C24.94,5.39,25.1,5.49,25.21,5.66z"/>
			<path class="st4" d="M25.52,11.7c0.1,0,0.19,0,0.29,0c0.04,0,0.08,0,0.08,0.04s-0.02,0.06-0.06,0.06c-0.21,0-0.4,0-0.61,0
				c-0.04,0-0.06-0.02-0.06-0.06s0.04-0.04,0.06-0.04C25.33,11.7,25.42,11.7,25.52,11.7z"/>
			<path class="st4" d="M26.23,13.16c-0.13,0-0.25,0-0.38,0c-0.04,0-0.1,0-0.1-0.06s0.04-0.06,0.08-0.06c0.27,0,0.54,0,0.79,0
				c0.04,0,0.08,0,0.08,0.06s-0.04,0.06-0.08,0.06C26.5,13.16,26.38,13.16,26.23,13.16z"/>
		</g>
	</g>
	<g>
		<path class="st0" d="M6.43,22.41v-5.08h2.44v0.77H7.62v1.11h1.23v0.77H7.62v2.42C7.62,22.41,6.43,22.41,6.43,22.41z"/>
		<path class="st0" d="M9.94,22.41v-5.08h2.44v0.77h-1.27v1.11h1.23v0.77h-1.23v1.65h1.27v0.77C12.38,22.41,9.94,22.41,9.94,22.41z"
			/>
		<path class="st0" d="M13.45,17.33h1.21c1.32,0,1.78,0.21,1.78,1.73v1.82c0,0.96-0.29,1.52-1.78,1.52h-1.21V17.33z M14.62,21.68
			c0.58,0,0.63-0.23,0.63-0.71v-2.09c0-0.67-0.02-0.84-0.63-0.84V21.68z"/>
		<path class="st0" d="M17.59,22.41v-5.08h2.44v0.77h-1.25v1.11h1.23v0.77h-1.23v1.65h1.27v0.77
			C20.05,22.41,17.59,22.41,17.59,22.41z"/>
		<path class="st0" d="M21.07,22.41v-5.08h1.19c1.13,0,1.8,0.1,1.8,1.19c0,0.63-0.27,1.04-0.9,1.15v0.02
			c0.56,0.02,0.9,0.23,0.9,0.96v1.07c0,0.21,0.04,0.5,0.19,0.71h-1.19c-0.15-0.21-0.17-0.5-0.17-0.71v-1.11
			c0-0.36-0.21-0.54-0.42-0.54h-0.19v2.32h-1.21V22.41z M22.26,19.36c0.54,0,0.63-0.19,0.63-0.65c0-0.48-0.08-0.65-0.63-0.65V19.36z
			"/>
		<path class="st0" d="M27.67,17.33l0.65,5.08h-1.17l-0.13-1.25h-0.65l-0.19,1.25h-1l0.86-5.08H27.67z M26.92,20.38l-0.21-2.26
			h-0.02l-0.21,2.26H26.92z"/>
		<path class="st0" d="M32.41,20.43v0.67c0,0.94-0.5,1.4-1.5,1.4c-0.79,0-1.48-0.31-1.48-1.48v-2.3c0-1.17,0.71-1.48,1.48-1.48
			c0.86,0,1.5,0.25,1.5,1.36v0.56h-1.19v-0.71c0-0.21-0.06-0.4-0.31-0.4c-0.25,0-0.31,0.19-0.31,0.4v2.86c0,0.21,0.06,0.4,0.31,0.4
			c0.25,0,0.31-0.19,0.31-0.4v-0.86h1.19V20.43z"/>
		<path class="st0" d="M33.56,22.41v-5.08h1.19v5.08H33.56z"/>
		<path class="st0" d="M38.89,21.03c0,1.17-0.71,1.48-1.5,1.48c-0.79,0-1.5-0.31-1.5-1.48v-2.32c0-1.17,0.71-1.48,1.5-1.48
			c0.79,0,1.5,0.31,1.5,1.48V21.03z M36.88,17.02l0.69-1h0.81l-1.04,1H36.88z M37.07,21.3c0,0.21,0.06,0.4,0.31,0.4
			s0.31-0.19,0.31-0.4v-2.86c0-0.21-0.06-0.4-0.31-0.4c-0.25,0-0.31,0.19-0.31,0.4V21.3z"/>
		<path class="st0" d="M40.02,17.33h1.63l0.75,3.7h0.02v-3.7h0.92v5.08h-1.52l-0.88-4.24h-0.02v4.24H40v-5.08H40.02z"/>
	</g>
	<g>
		<path class="st0" d="M9.08,24.94h0.56c0.61,0,0.81,0.13,0.81,0.96v1c0,0.54-0.13,0.86-0.81,0.86H9.08V24.94z M9.65,27.34
			c0.27,0,0.29-0.13,0.29-0.4v-1.15c0-0.38-0.02-0.46-0.29-0.46V27.34z"/>
		<path class="st0" d="M12.13,26.98c0,0.65-0.33,0.81-0.69,0.81s-0.69-0.19-0.69-0.81v-1.27c0-0.65,0.33-0.81,0.69-0.81
			s0.69,0.19,0.69,0.81V26.98z M11.3,27.13c0,0.1,0.02,0.23,0.15,0.23s0.15-0.1,0.15-0.23v-1.59c0-0.1-0.02-0.23-0.15-0.23
			s-0.15,0.1-0.15,0.23V27.13z"/>
		<path class="st0" d="M12.84,27.74h-0.44v-2.82h0.81l0.23,2.01l0,0l0.23-2.01h0.79v2.82h-0.5v-2.4l0,0l-0.31,2.4h-0.48l-0.31-2.4
			l0,0v2.4H12.84z"/>
		<path class="st0" d="M14.74,27.74v-2.82h0.54v2.82H14.74z"/>
		<path class="st0" d="M15.54,24.94h0.75l0.36,2.05l0,0v-2.05h0.44v2.82h-0.71l-0.4-2.36l0,0v2.36h-0.44V24.94z"/>
		<path class="st0" d="M17.33,27.74v-2.82h0.54v2.82H17.33z"/>
		<path class="st0" d="M19.53,26.65v0.38c0,0.52-0.23,0.77-0.69,0.77c-0.36,0-0.69-0.19-0.69-0.81v-1.27c0-0.65,0.33-0.81,0.69-0.81
			c0.4,0,0.69,0.15,0.69,0.75v0.31h-0.54v-0.4c0-0.1-0.02-0.23-0.15-0.23c-0.1,0-0.15,0.1-0.15,0.23v1.59c0,0.1,0.02,0.23,0.15,0.23
			s0.15-0.1,0.15-0.23v-0.48h0.54V26.65z"/>
		<path class="st0" d="M20.93,24.94l0.31,2.82H20.7l-0.06-0.69h-0.29l-0.08,0.69h-0.5l0.4-2.82H20.93z M20.57,26.63l-0.1-1.25l0,0
			l-0.1,1.25H20.57z"/>
		<path class="st0" d="M21.45,24.94h0.75l0.36,2.05l0,0v-2.05h0.44v2.82h-0.71l-0.4-2.36l0,0v2.36h-0.44V24.94z"/>
		<path class="st0" d="M24.35,24.94l0.31,2.82h-0.54l-0.06-0.69h-0.29l-0.08,0.69h-0.46l0.4-2.82H24.35z M24.02,26.63l-0.1-1.25l0,0
			l-0.1,1.25H24.02z"/>
		<path class="st0" d="M25.81,24.94h0.56c0.61,0,0.81,0.13,0.81,0.96v1c0,0.54-0.13,0.86-0.81,0.86h-0.56V24.94z M26.36,27.34
			c0.27,0,0.29-0.13,0.29-0.4v-1.15c0-0.38-0.02-0.46-0.29-0.46V27.34z"/>
		<path class="st0" d="M27.46,27.74v-2.82h1.13v0.42h-0.58v0.63h0.56v0.42h-0.56v0.92h0.58v0.42h-1.13V27.74z"/>
		<path class="st0" d="M30.83,24.94l0.31,2.82H30.6l-0.06-0.69h-0.29l-0.08,0.69H29.7l0.4-2.82H30.83z M30.49,26.63l-0.1-1.25l0,0
			l-0.1,1.25H30.49z"/>
		<path class="st0" d="M32.75,24.94v2.11c0,0.4-0.1,0.77-0.69,0.77c-0.21,0-0.69-0.08-0.69-0.69v-0.46h0.54v0.4
			c0,0.13,0,0.29,0.15,0.29c0.15,0,0.15-0.17,0.15-0.29v-2.13C32.21,24.94,32.75,24.94,32.75,24.94z"/>
		<path class="st0" d="M33.04,27.74v-2.82h1.13v0.42h-0.58v0.63h0.56v0.42h-0.56v0.92h0.58v0.42h-1.13V27.74z"/>
		<path class="st0" d="M34.4,24.94h0.56c0.61,0,0.81,0.13,0.81,0.96v1c0,0.54-0.13,0.86-0.81,0.86H34.4V24.94z M34.94,27.34
			c0.27,0,0.29-0.13,0.29-0.4v-1.15c0-0.38-0.02-0.46-0.29-0.46V27.34z"/>
		<path class="st0" d="M36.05,27.74v-2.82h0.54c0.52,0,0.84,0.06,0.84,0.65c0,0.36-0.13,0.58-0.42,0.65l0,0
			c0.27,0,0.42,0.13,0.42,0.52v0.58c0,0.1,0.02,0.27,0.08,0.4h-0.54c-0.06-0.1-0.08-0.27-0.08-0.4v-0.61c0-0.19-0.1-0.29-0.19-0.29
			h-0.08v1.29h-0.56V27.74z M36.59,26.04c0.25,0,0.29-0.1,0.29-0.36c0-0.25-0.04-0.36-0.29-0.36V26.04z"/>
		<path class="st0" d="M37.72,27.74v-2.82h1.13v0.42h-0.58v0.63h0.56v0.42h-0.56v0.92h0.58v0.42h-1.13V27.74z"/>
		<path class="st0" d="M39.01,27.74v-0.48l0.61-1.9h-0.61v-0.42h1.19v0.42l-0.65,1.96h0.65v0.42H39.01z"/>
	</g>
</g>
</svg>
